# xmcd
#
# Track frame offsets:
#	150
#	15899
#	32220
#	48437
#	61262
#	77688
#	93744
#	108621
#	125490
#	137851
#	153735
#	169403
#	183092
#	196971
#	210670
#	225997
#
# Disc length: 3207 seconds
#
# Revision: 1
# Processed by: cddbd v1.5.2PL0 Copyright (c) Steve Scherf et al.
# Submitted via: audiograbber 1.83.01
#
DISCID=d60c8510
DTITLE=Thomas Rhett - Center Point Road
DYEAR=2019
DGENRE=Country
TTITLE0=Up
TTITLE1=Don't Threaten Me With A Good Time (feat. Little Big Town)
TTITLE2=Blessed
TTITLE3=Look What God Gave Her
TTITLE4=Center Point Road (feat. Kelsea Ballerini)
TTITLE5=That Old Truck
TTITLE6=VHS
TTITLE7=Notice
TTITLE8=Sand
TTITLE9=Beer Can't Fix (feat. Jon Pardi)
TTITLE10=Things You Do For Love
TTITLE11=Remember You Young
TTITLE12=Don't Stop Drivin'
TTITLE13=Barefoot
TTITLE14=Dream You Never Had
TTITLE15=Almost
EXTD=
EXTT0=
EXTT1=
EXTT2=
EXTT3=
EXTT4=
EXTT5=
EXTT6=
EXTT7=
EXTT8=
EXTT9=
EXTT10=
EXTT11=
EXTT12=
EXTT13=
EXTT14=
EXTT15=
PLAYORDER=
